<?xml version="1.0" encoding="utf-8"?>
<!-- Generator: Adobe Illustrator 16.0.0, SVG Export Plug-In . SVG Version: 6.00 Build 0)  -->
<!DOCTYPE svg PUBLIC "-//W3C//DTD SVG 1.1//EN" "http://www.w3.org/Graphics/SVG/1.1/DTD/svg11.dtd">
<svg version="1.1" id="Camada_1" xmlns="http://www.w3.org/2000/svg" xmlns:xlink="http://www.w3.org/1999/xlink" x="0px" y="0px"
	 width="82.5px" height="82.5px" viewBox="18.75 18.75 82.5 82.5" enable-background="new 18.75 18.75 82.5 82.5"
	 xml:space="preserve">
<path fill="#FFFFFF" d="M75.638,60l23.454-23.454c2.878-2.878,2.878-7.544,0-10.425l-5.213-5.212c-2.878-2.878-7.545-2.878-10.425,0
	L60,44.362L36.546,20.909c-2.878-2.878-7.544-2.878-10.425,0l-5.212,5.212c-2.878,2.878-2.878,7.544,0,10.425L44.362,60
	L20.909,83.454c-2.878,2.878-2.878,7.544,0,10.425l5.212,5.213c2.878,2.878,7.547,2.878,10.425,0L60,75.638l23.454,23.454
	c2.878,2.878,7.547,2.878,10.425,0l5.213-5.213c2.878-2.878,2.878-7.545,0-10.425L75.638,60z"/>
</svg>
