<?xml version="1.0" encoding="utf-8"?>
<!-- Generator: Adobe Illustrator 16.0.0, SVG Export Plug-In . SVG Version: 6.00 Build 0)  -->
<!DOCTYPE svg PUBLIC "-//W3C//DTD SVG 1.1//EN" "http://www.w3.org/Graphics/SVG/1.1/DTD/svg11.dtd">
<svg version="1.1" id="Camada_1" xmlns="http://www.w3.org/2000/svg" xmlns:xlink="http://www.w3.org/1999/xlink" x="0px" y="0px"
	 width="32px" height="32px" viewBox="44 44 32 32" enable-background="new 44 44 32 32" xml:space="preserve">
<path fill="#FFFFFF" d="M75.558,71.672l-6.23-6.23c-0.281-0.281-0.662-0.438-1.062-0.438h-1.02c1.725-2.206,2.749-4.981,2.749-8
	c0-7.181-5.817-12.999-12.998-12.999s-12.999,5.818-12.999,12.999c0,7.18,5.818,12.999,12.999,12.999
	c3.019,0,5.794-1.025,7.999-2.749v1.019c0,0.4,0.156,0.78,0.438,1.062l6.23,6.231c0.588,0.587,1.538,0.587,2.119,0l1.768-1.769
	C76.139,73.21,76.139,72.26,75.558,71.672z M56.997,65.004c-4.418,0-7.999-3.574-7.999-8c0-4.418,3.575-7.999,7.999-7.999
	c4.419,0,7.999,3.575,7.999,7.999C64.996,61.423,61.422,65.004,56.997,65.004z"/>
</svg>
